<?xml version="1.0" encoding="UTF-8"?>
<svg id="Capa_1" data-name="Capa 1" xmlns="http://www.w3.org/2000/svg" version="1.1" viewBox="0 0 16 16">
  <defs>
    <style>
      .cls-1 {
        fill: #43b0c9;
      }

      .cls-1, .cls-2, .cls-3 {
        fill-rule: evenodd;
        stroke-width: 0px;
      }

      .cls-2 {
        fill: #cecece;
      }

      .cls-3 {
        fill: #e06977;
      }
    </style>
  </defs>
  <path class="cls-3" d="M.8,9.5c-.2,0-.3.1-.3.3,0,0,0,0,0,0l1,4.8c.2.7.8,1.3,1.5,1.3h3.5c.7,0,1.3-.5,1.5-1.3v-.4c1.1.2,2-.5,2.2-1.6.2-1-.4-2-1.3-2.2v-.6c.2-.2,0-.3,0-.4,0,0,0,0,0,0H.8ZM8.4,13.7c0,0-.1,0-.2,0l.5-2.5c.6.2,1,.9.8,1.6-.2.6-.6.9-1.2.9"/>
  <path class="cls-2" d="M1.3,3.5c-.2,0-.3.2-.3.4,0,0,0,0,0,0l2.4,4.3c.4.7,1.2,1,2,.7l3.9-1.1c.8-.2,1.3-.9,1.3-1.7v-.4c1.1-.1,2-1.1,2-2.1,0-1-1-1.8-2.1-1.7v-.6c0-.2-.2-.3-.4-.3,0,0,0,0,0,0L1.3,3.5ZM10.9,5.2c0,0-.1,0-.2,0v-2.6c.7,0,1.3.6,1.3,1.3,0,.6-.5,1.1-1.1,1.2"/>
  <path class="cls-1" d="M3.8,6.5c-.2,0-.4.2-.4.5,0,0,0,0,0,.1l1.3,7.1c.2,1.1,1,1.9,1.9,1.9h4.6c.9,0,1.7-.8,1.9-1.9v-.6c1.4.3,2.6-.7,2.9-2.3.2-1.5-.5-2.9-1.7-3.3l.2-.9c0-.3,0-.5-.3-.6,0,0,0,0,0,0H3.8ZM13.6,12.7c0,0-.2,0-.2,0l.7-3.7c.8.3,1.3,1.3,1.1,2.4-.2.8-.8,1.4-1.5,1.4"/>
</svg>