<?xml version="1.0" encoding="UTF-8"?>
<svg id="uuid-5fd95b2c-134a-427e-ba62-a28baad07c01" data-name="Capa 1" xmlns="http://www.w3.org/2000/svg" viewBox="0 0 427.99 64.96">
  <path d="M26,30.8h-7.36v33.28H4.96V30.8H0v-11.36h4.96v-1.28c0-5.49,1.57-9.67,4.72-12.52,3.15-2.85,7.76-4.28,13.84-4.28,1.01,0,1.76.03,2.24.08v11.6c-2.61-.16-4.45.21-5.52,1.12-1.07.91-1.6,2.53-1.6,4.88v.4h7.36v11.36Z" style="fill: #fff; stroke-width: 0px;"/>
  <path d="M46.08,4.88v59.2h-13.68V4.88h13.68Z" style="fill: #fff; stroke-width: 0px;"/>
  <path d="M55.88,29.6c1.73-3.47,4.09-6.13,7.08-8,2.99-1.87,6.32-2.8,10-2.8,3.15,0,5.91.64,8.28,1.92,2.37,1.28,4.2,2.96,5.48,5.04v-6.32h13.68v44.64h-13.68v-6.32c-1.33,2.08-3.19,3.76-5.56,5.04-2.37,1.28-5.13,1.92-8.28,1.92-3.63,0-6.93-.95-9.92-2.84-2.99-1.89-5.35-4.59-7.08-8.08-1.73-3.49-2.6-7.53-2.6-12.12s.87-8.61,2.6-12.08ZM83.88,33.68c-1.89-1.97-4.2-2.96-6.92-2.96s-5.03.97-6.92,2.92c-1.89,1.95-2.84,4.63-2.84,8.04s.95,6.12,2.84,8.12c1.89,2,4.2,3,6.92,3s5.03-.99,6.92-2.96c1.89-1.97,2.84-4.67,2.84-8.08s-.95-6.11-2.84-8.08Z" style="fill: #fff; stroke-width: 0px;"/>
  <path d="M135.2,52.48v11.6h-6.96c-4.96,0-8.83-1.21-11.6-3.64-2.77-2.43-4.16-6.39-4.16-11.88v-17.76h-5.44v-11.36h5.44v-10.88h13.68v10.88h8.96v11.36h-8.96v17.92c0,1.33.32,2.29.96,2.88.64.59,1.71.88,3.2.88h4.88Z" style="fill: #fff; stroke-width: 0px;"/>
  <path d="M185.76,64.08l-5.2-5.04c-5.17,3.95-11.36,5.92-18.56,5.92-4.32,0-8.08-.71-11.28-2.12-3.2-1.41-5.67-3.41-7.4-6-1.73-2.59-2.6-5.61-2.6-9.08s.95-6.71,2.84-9.56c1.89-2.85,4.73-5.19,8.52-7-1.39-1.71-2.37-3.35-2.96-4.92-.59-1.57-.88-3.29-.88-5.16,0-2.67.69-5.09,2.08-7.28,1.39-2.19,3.4-3.91,6.04-5.16,2.64-1.25,5.77-1.88,9.4-1.88s6.8.67,9.36,2c2.56,1.33,4.48,3.12,5.76,5.36,1.28,2.24,1.87,4.69,1.76,7.36h-12.88c.05-1.44-.31-2.55-1.08-3.32-.77-.77-1.8-1.16-3.08-1.16s-2.35.37-3.2,1.12c-.85.75-1.28,1.71-1.28,2.88s.36,2.29,1.08,3.52c.72,1.23,1.85,2.64,3.4,4.24l13.68,13.36c.11-.27.25-.59.44-.96.19-.37.51-1.09,2-2.62l14.45-13.79c3.79-3.62,7.16-5.43,12.39-5.23l1.68.71c3.42,3,3.14,1.81,1.65,3.29l-18.47,18.39c-8.82,8.61-4.39,9.25-5.27,8.85l13.52,13.28h-15.92ZM172.16,50.88l-12.48-12.08c-3.84,1.97-5.76,4.64-5.76,8,0,2.03.79,3.72,2.36,5.08,1.57,1.36,3.69,2.04,6.36,2.04,3.57,0,6.75-1.01,9.52-3.04Z" style="fill: #fff; stroke-width: 0px;"/>
  <path d="M270.72,19.55l-12.08,44.64h-15.12l-7.04-28.96-7.28,28.96h-15.04l-10.46-38.38c-.86-3.15,1.51-6.26,4.78-6.26h0c4.18,0,7.78,2.95,8.59,7.06l4.92,24.86,7.52-31.92h14.48l7.6,31.76,6.24-31.76h12.88Z" style="fill: #fff; stroke-width: 0px;"/>
  <path d="M315.67,24.04c3.09,3.39,4.64,8.04,4.64,13.96v26.08h-13.6v-24.24c0-2.99-.77-5.31-2.32-6.96-1.55-1.65-3.63-2.48-6.24-2.48s-4.69.83-6.24,2.48c-1.55,1.65-2.32,3.97-2.32,6.96v24.24h-13.68V4.88h13.68v20.56c1.39-1.97,3.28-3.55,5.68-4.72,2.4-1.17,5.09-1.76,8.08-1.76,5.12,0,9.23,1.69,12.32,5.08Z" style="fill: #fff; stroke-width: 0px;"/>
  <path d="M330.83,12.68c-1.52-1.41-2.28-3.16-2.28-5.24s.76-3.91,2.28-5.32c1.52-1.41,3.48-2.12,5.88-2.12s4.28.71,5.8,2.12c1.52,1.41,2.28,3.19,2.28,5.32s-.76,3.83-2.28,5.24c-1.52,1.41-3.45,2.12-5.8,2.12s-4.36-.71-5.88-2.12ZM343.51,19.44v44.64h-13.68V19.44h13.68Z" style="fill: #fff; stroke-width: 0px;"/>
  <path d="M378.31,52.48v11.6h-6.96c-4.96,0-8.83-1.21-11.6-3.64-2.77-2.43-4.16-6.39-4.16-11.88v-17.76h-5.44v-11.36h5.44v-10.88h13.68v10.88h8.96v11.36h-8.96v17.92c0,1.33.32,2.29.96,2.88.64.59,1.71.88,3.2.88h4.88Z" style="fill: #fff; stroke-width: 0px;"/>
  <path d="M427.75,45.04h-30.96c.21,2.77,1.11,4.89,2.68,6.36,1.57,1.47,3.51,2.2,5.8,2.2,3.41,0,5.79-1.44,7.12-4.32h14.56c-.75,2.93-2.09,5.57-4.04,7.92-1.95,2.35-4.39,4.19-7.32,5.52-2.93,1.33-6.21,2-9.84,2-4.37,0-8.27-.93-11.68-2.8-3.41-1.87-6.08-4.53-8-8-1.92-3.47-2.88-7.52-2.88-12.16s.95-8.69,2.84-12.16c1.89-3.47,4.55-6.13,7.96-8,3.41-1.87,7.33-2.8,11.76-2.8s8.16.91,11.52,2.72c3.36,1.81,5.99,4.4,7.88,7.76,1.89,3.36,2.84,7.28,2.84,11.76,0,1.28-.08,2.61-.24,4ZM413.99,37.44c0-2.35-.8-4.21-2.4-5.6-1.6-1.39-3.6-2.08-6-2.08s-4.23.67-5.8,2c-1.57,1.33-2.55,3.23-2.92,5.68h17.12Z" style="fill: #fff; stroke-width: 0px;"/>
</svg>